<svg width="48" height="48" viewBox="0 0 48 48" fill="none" xmlns="http://www.w3.org/2000/svg">
<g clip-path="url(#clip0_1_1877)">
<path d="M31.5 1.5C33.15 1.5 34.5 2.85 34.5 4.5C34.5 6.15 33.15 7.5 31.5 7.5C29.85 7.5 28.5 6.15 28.5 4.5C28.5 2.85 29.85 1.5 31.5 1.5Z" fill="#FFF3DC"/>
<path d="M29.625 14.9253L29.535 15.0003C22.035 19.5003 19.5 25.7403 19.5 25.7403C17.505 24.2553 15.78 22.4553 16.5 21.0003C19.5 15.0003 24 12.0003 27 10.5003C27.675 12.1953 28.59 13.6653 29.625 14.9253Z" fill="#00C4AC"/>
<path d="M37.5 28.5C42.465 28.5 46.5 32.535 46.5 37.5C46.5 42.465 42.465 46.5 37.5 46.5C32.535 46.5 28.5 42.465 28.5 37.5C28.5 32.535 32.535 28.5 37.5 28.5ZM15.5398 30C17.9248 31.62 19.4998 34.395 19.4998 37.5C19.4998 42.465 15.4648 46.5 10.4998 46.5C5.53485 46.5 1.49985 42.465 1.49985 37.5C1.49985 36.435 1.49985 33 4.49985 30H15.5398Z" fill="#33A49E"/>
<path d="M24.0003 37.5V28.5C24.0003 28.5 15.0003 24 16.5003 21C19.5003 15 24.0003 12 27.0003 10.5C30.0003 18 37.5003 21 37.5003 21M12.0003 24H3.0003M10.5003 18H1.5003M2.01885 34.4839C1.68285 35.4274 1.49985 36.4429 1.49985 37.5004C1.49985 42.4699 5.53035 46.5004 10.4998 46.5004C15.4708 46.5004 19.4998 42.4699 19.4998 37.5004C19.4998 34.3924 17.9263 31.6174 15.5338 30.0004H4.49985M19.5003 25.7373C19.5003 25.7373 22.0308 19.5003 29.5308 15.0003M46.5003 37.5C46.5003 32.5305 42.4698 28.5 37.5003 28.5C32.5308 28.5 28.5003 32.5305 28.5003 37.5C28.5003 42.4695 32.5308 46.5 37.5003 46.5C42.4698 46.5 46.5003 42.4695 46.5003 37.5ZM34.5003 4.5C34.5003 2.844 33.1563 1.5 31.5003 1.5C29.8443 1.5 28.5003 2.844 28.5003 4.5C28.5003 6.156 29.8443 7.5 31.5003 7.5C33.1563 7.5 34.5003 6.156 34.5003 4.5Z" stroke="#242424" stroke-width="2" stroke-linecap="round" stroke-linejoin="round"/>
</g>
<defs>
<clipPath id="clip0_1_1877">
<rect width="48" height="48" fill="white"/>
</clipPath>
</defs>
</svg>
