<svg width="40" height="31" viewBox="0 0 40 31" fill="none" xmlns="http://www.w3.org/2000/svg">
<path d="M28.4486 19.3945C26.1146 17.3199 23.1005 16.1739 19.9778 16.1739C16.8551 16.1739 13.8409 17.3199 11.507 19.3945C11.3098 19.5652 11.1484 19.7733 11.0323 20.0068C10.9162 20.2404 10.8477 20.4946 10.8307 20.7549C10.8137 21.0151 10.8485 21.2761 10.9332 21.5228C11.018 21.7694 11.1508 21.9968 11.3242 22.1917C11.4975 22.3866 11.7078 22.5451 11.9429 22.658C12.178 22.7709 12.4331 22.8359 12.6936 22.8494C12.954 22.8629 13.2146 22.8245 13.4601 22.7364C13.7055 22.6483 13.9311 22.5124 14.1236 22.3364C15.7366 20.9028 17.8197 20.1109 19.9778 20.1109C22.1359 20.1109 24.2189 20.9028 25.832 22.3364C26.2224 22.6834 26.7346 22.8611 27.2559 22.8304C27.7773 22.7997 28.2652 22.5632 28.6121 22.1728C28.9591 21.7824 29.1368 21.2702 29.1061 20.7488C29.0755 20.2275 28.8389 19.7396 28.4486 19.3926V19.3945Z" fill="#33A49E"/>
<path d="M19.9763 8.08827C14.6904 8.08098 9.60078 10.09 5.74504 13.7058C5.54982 13.8806 5.39148 14.0927 5.27931 14.3296C5.16713 14.5665 5.10339 14.8233 5.0918 15.0852C5.08021 15.347 5.12102 15.6085 5.21183 15.8544C5.30264 16.1002 5.44163 16.3255 5.62064 16.5169C5.79965 16.7083 6.01508 16.8621 6.25429 16.9692C6.49351 17.0762 6.7517 17.1345 7.01372 17.1405C7.27574 17.1464 7.53631 17.1 7.78017 17.004C8.02402 16.9079 8.24623 16.7641 8.43379 16.5811C11.5645 13.6541 15.6904 12.0258 19.9763 12.0258C24.2622 12.0258 28.388 13.6541 31.5188 16.5811C31.7063 16.7641 31.9286 16.9079 32.1724 17.004C32.4163 17.1 32.6768 17.1464 32.9389 17.1405C33.2009 17.1345 33.4591 17.0762 33.6983 16.9692C33.9375 16.8621 34.1529 16.7083 34.3319 16.5169C34.5109 16.3255 34.6499 16.1002 34.7407 15.8544C34.8316 15.6085 34.8724 15.347 34.8608 15.0852C34.8492 14.8233 34.7854 14.5665 34.6733 14.3296C34.5611 14.0927 34.4028 13.8806 34.2075 13.7058C30.3518 10.09 25.2622 8.08098 19.9763 8.08827Z" fill="#33A49E"/>
<path d="M39.2625 7.35327C33.9547 2.61736 27.0898 0 19.9763 0C12.8628 0 5.99791 2.61736 0.690043 7.35327C0.490558 7.52367 0.327143 7.73222 0.2094 7.96668C0.0916574 8.20113 0.0219628 8.45675 0.00441089 8.71852C-0.013141 8.98028 0.0218041 9.24292 0.107193 9.49099C0.192582 9.73907 0.326691 9.96757 0.501642 10.1631C0.676593 10.3586 0.888855 10.5172 1.12596 10.6295C1.36306 10.7418 1.62022 10.8056 1.88232 10.8171C2.14442 10.8286 2.40619 10.7876 2.65222 10.6965C2.89826 10.6055 3.12362 10.4661 3.31504 10.2867C7.90095 6.19675 13.831 3.93651 19.9758 3.93651C26.1206 3.93651 32.0507 6.19675 36.6366 10.2867C37.0259 10.6348 37.5374 10.814 38.0588 10.7849C38.5802 10.7558 39.0687 10.5208 39.4168 10.1315C39.7649 9.7423 39.9441 9.23072 39.915 8.70934C39.8859 8.18796 39.6509 7.69949 39.2616 7.35139L39.2625 7.35327Z" fill="#33A49E"/>
<path d="M19.9763 30.7486C21.6332 30.7486 22.9763 29.4054 22.9763 27.7486C22.9763 26.0917 21.6332 24.7486 19.9763 24.7486C18.3195 24.7486 16.9763 26.0917 16.9763 27.7486C16.9763 29.4054 18.3195 30.7486 19.9763 30.7486Z" fill="#33A49E"/>
</svg>
