<svg width="29" height="30" viewBox="0 0 29 30" fill="none" xmlns="http://www.w3.org/2000/svg">
<path d="M21.6581 3.75C20.7124 3.75 19.8055 4.14509 19.1367 4.84835C18.468 5.55161 18.0923 6.50544 18.0923 7.5V22.5C18.0923 23.4946 18.468 24.4484 19.1367 25.1517C19.8055 25.8549 20.7124 26.25 21.6581 26.25C22.6039 26.25 23.5108 25.8549 24.1796 25.1517C24.8483 24.4484 25.224 23.4946 25.224 22.5C25.224 21.5054 24.8483 20.5516 24.1796 19.8483C23.5108 19.1451 22.6039 18.75 21.6581 18.75H7.39489C6.44917 18.75 5.54219 19.1451 4.87347 19.8483C4.20475 20.5516 3.82907 21.5054 3.82907 22.5C3.82907 23.4946 4.20475 24.4484 4.87347 25.1517C5.54219 25.8549 6.44917 26.25 7.39489 26.25C8.3406 26.25 9.24758 25.8549 9.9163 25.1517C10.585 24.4484 10.9607 23.4946 10.9607 22.5V7.5C10.9607 6.50544 10.585 5.55161 9.9163 4.84835C9.24758 4.14509 8.3406 3.75 7.39489 3.75C6.44917 3.75 5.54219 4.14509 4.87347 4.84835C4.20475 5.55161 3.82907 6.50544 3.82907 7.5C3.82907 8.49456 4.20475 9.44839 4.87347 10.1517C5.54219 10.8549 6.44917 11.25 7.39489 11.25H21.6581C22.6039 11.25 23.5108 10.8549 24.1796 10.1517C24.8483 9.44839 25.224 8.49456 25.224 7.5C25.224 6.50544 24.8483 5.55161 24.1796 4.84835C23.5108 4.14509 22.6039 3.75 21.6581 3.75Z" stroke="#71C9C3" stroke-width="2" stroke-linecap="round" stroke-linejoin="round"/>
</svg>
