<svg width="30" height="42" viewBox="0 0 30 42" fill="none" xmlns="http://www.w3.org/2000/svg">
<path d="M27.9591 15.5212C26.7976 12.4377 25.1041 9.58193 22.9556 7.08375C19.2375 2.77969 14.3484 0 10.5 0C10.2712 0.000170655 10.0454 0.0526945 9.84 0.153551C9.63459 0.254408 9.45498 0.400923 9.31492 0.581883C9.17486 0.762843 9.07806 0.97345 9.03192 1.19758C8.98579 1.42172 8.99154 1.65343 9.04875 1.875C10.3491 6.84375 7.65375 10.9753 4.80094 15.3488C2.4375 18.9713 0 22.7128 0 27C0 35.2706 6.72937 42 15 42C23.2706 42 30 35.2706 30 27C30 22.9406 29.3138 19.0791 27.9591 15.5212ZM18.0309 36.2522C17.0625 37.2834 15.8484 37.5 15 37.5C14.1516 37.5 12.9375 37.2834 11.9691 36.2522C11.0006 35.2209 10.5 33.585 10.5 31.5C10.5 29.1431 11.3269 27.3488 12.1256 25.6144C12.5897 24.6075 13.0631 23.5828 13.3444 22.4859C13.3742 22.3666 13.433 22.2565 13.5154 22.1652C13.5979 22.074 13.7015 22.0044 13.8172 21.9626C13.9329 21.9208 14.0571 21.9082 14.1788 21.9257C14.3006 21.9432 14.4161 21.9904 14.5153 22.0631C15.3728 22.7265 16.1352 23.5044 16.7812 24.375C18.4847 26.625 19.5 29.2894 19.5 31.5C19.5 33.585 18.9919 35.2284 18.0309 36.2522Z" fill="#33A49E"/>
</svg>
