<svg width="48" height="48" viewBox="0 0 48 48" fill="none" xmlns="http://www.w3.org/2000/svg">
<path d="M10.5 21H45C45.585 21 46.5 21 46.5 22.5C46.5 32.445 38.445 40.5 28.5 40.5C22.395 40.5 16.995 37.455 13.755 32.82C12.255 30.675 11.205 28.185 10.755 25.5C10.755 25.5 10.5 22.5 10.5 21Z" fill="#33A49E"/>
<path d="M33 15C33 15 31.5 13.5 31.5 12C31.5 10.5 33 9 33 9C33 9 34.5 7.5 34.5 6C34.5 4.5 33 3 33 3M25.5 15C25.5 15 24 13.5 24 12C24 10.5 25.5 9 25.5 9C25.5 9 27 7.5 27 6C27 4.5 25.5 3 25.5 3M16.5 46.5H40.5M9 33.0043C9 33.0043 9 32.9999 7.5 32.9999C4.1865 32.9999 1.5 30.3133 1.5 26.9998C1.5 23.6863 4.1865 20.9998 7.5 20.9998H45C45.579 20.9998 46.5 20.9998 46.5 22.4998C46.5 32.4403 38.4405 40.4999 28.5 40.4999C19.581 40.4999 12.1755 34.0109 10.749 25.4969" stroke="#242424" stroke-width="2" stroke-linecap="round" stroke-linejoin="round"/>
</svg>
