<svg width="45" height="39" viewBox="0 0 45 39" fill="none" xmlns="http://www.w3.org/2000/svg">
<path d="M0 28.5C0.00124087 29.6931 0.475745 30.837 1.31939 31.6806C2.16303 32.5243 3.30691 32.9988 4.5 33H17.0513L16.6763 36H12C11.6022 36 11.2206 36.158 10.9393 36.4393C10.658 36.7206 10.5 37.1022 10.5 37.5C10.5 37.8978 10.658 38.2794 10.9393 38.5607C11.2206 38.842 11.6022 39 12 39H33C33.3978 39 33.7794 38.842 34.0607 38.5607C34.342 38.2794 34.5 37.8978 34.5 37.5C34.5 37.1022 34.342 36.7206 34.0607 36.4393C33.7794 36.158 33.3978 36 33 36H28.3237L27.9487 33H40.5C41.6931 32.9988 42.837 32.5243 43.6806 31.6806C44.5243 30.837 44.9988 29.6931 45 28.5V24H0V28.5ZM22.5 27C22.7967 27 23.0867 27.088 23.3334 27.2528C23.58 27.4176 23.7723 27.6519 23.8858 27.926C23.9994 28.2001 24.0291 28.5017 23.9712 28.7926C23.9133 29.0836 23.7704 29.3509 23.5607 29.5607C23.3509 29.7704 23.0836 29.9133 22.7926 29.9712C22.5017 30.0291 22.2001 29.9994 21.926 29.8858C21.6519 29.7723 21.4176 29.58 21.2528 29.3334C21.088 29.0867 21 28.7967 21 28.5C21 28.1022 21.158 27.7206 21.4393 27.4393C21.7206 27.158 22.1022 27 22.5 27Z" fill="#33A49E"/>
<path d="M45 4.5C44.9988 3.30691 44.5243 2.16303 43.6806 1.31939C42.837 0.475745 41.6931 0.00124087 40.5 0H4.5C3.30691 0.00124087 2.16303 0.475745 1.31939 1.31939C0.475745 2.16303 0.00124087 3.30691 0 4.5V22.5H45V4.5Z" fill="#33A49E"/>
</svg>
