<svg width="42" height="46" viewBox="0 0 42 46" fill="none" xmlns="http://www.w3.org/2000/svg">
<path d="M37.5 15.5H27V5C27 3.80653 26.5259 2.66193 25.682 1.81802C24.8381 0.974106 23.6935 0.5 22.5 0.5H4.5C3.30653 0.5 2.16193 0.974106 1.31802 1.81802C0.474106 2.66193 0 3.80653 0 5V44C0 44.3978 0.158035 44.7794 0.43934 45.0607C0.720644 45.342 1.10218 45.5 1.5 45.5H11.25C11.4489 45.5 11.6397 45.421 11.7803 45.2803C11.921 45.1397 12 44.9489 12 44.75V38.0422C12 37.235 12.6206 36.5422 13.4278 36.5019C13.6306 36.4921 13.8333 36.5236 14.0236 36.5945C14.2139 36.6654 14.3878 36.7741 14.5348 36.9142C14.6818 37.0543 14.7988 37.2227 14.8788 37.4094C14.9587 37.596 15 37.797 15 38V44.75C15 44.9489 15.079 45.1397 15.2197 45.2803C15.3603 45.421 15.5511 45.5 15.75 45.5H40.5C40.8978 45.5 41.2794 45.342 41.5607 45.0607C41.842 44.7794 42 44.3978 42 44V20C42 18.8065 41.5259 17.6619 40.682 16.818C39.8381 15.9741 38.6935 15.5 37.5 15.5ZM6.195 39.4878C5.88434 39.5284 5.56875 39.4708 5.29254 39.3229C5.01632 39.175 4.79334 38.9444 4.65489 38.6633C4.51644 38.3823 4.46946 38.0649 4.52057 37.7558C4.57167 37.4467 4.71828 37.1614 4.93982 36.9398C5.16136 36.7183 5.44671 36.5717 5.75582 36.5206C6.06493 36.4695 6.38228 36.5164 6.66334 36.6549C6.94439 36.7933 7.17504 37.0163 7.32291 37.2925C7.47078 37.5688 7.52844 37.8843 7.48781 38.195C7.44494 38.5228 7.29494 38.8273 7.06114 39.0611C6.82734 39.2949 6.52285 39.4449 6.195 39.4878ZM6.195 31.9878C5.88434 32.0284 5.56875 31.9708 5.29254 31.8229C5.01632 31.675 4.79334 31.4444 4.65489 31.1633C4.51644 30.8823 4.46946 30.5649 4.52057 30.2558C4.57167 29.9467 4.71828 29.6614 4.93982 29.4398C5.16136 29.2183 5.44671 29.0717 5.75582 29.0206C6.06493 28.9695 6.38228 29.0164 6.66334 29.1549C6.94439 29.2933 7.17504 29.5163 7.32291 29.7925C7.47078 30.0688 7.52844 30.3843 7.48781 30.695C7.44494 31.0228 7.29494 31.3273 7.06114 31.5611C6.82734 31.7949 6.52285 31.9449 6.195 31.9878ZM6.195 24.4878C5.88434 24.5284 5.56875 24.4708 5.29254 24.3229C5.01632 24.175 4.79334 23.9444 4.65489 23.6633C4.51644 23.3823 4.46946 23.0649 4.52057 22.7558C4.57167 22.4467 4.71828 22.1614 4.93982 21.9398C5.16136 21.7183 5.44671 21.5717 5.75582 21.5206C6.06493 21.4695 6.38228 21.5164 6.66334 21.6549C6.94439 21.7933 7.17504 22.0163 7.32291 22.2925C7.47078 22.5688 7.52844 22.8843 7.48781 23.195C7.44494 23.5228 7.29494 23.8273 7.06114 24.0611C6.82734 24.2949 6.52285 24.4449 6.195 24.4878ZM6.195 16.9878C5.88434 17.0284 5.56875 16.9708 5.29254 16.8229C5.01632 16.675 4.79334 16.4444 4.65489 16.1633C4.51644 15.8823 4.46946 15.5649 4.52057 15.2558C4.57167 14.9467 4.71828 14.6614 4.93982 14.4398C5.16136 14.2183 5.44671 14.0717 5.75582 14.0206C6.06493 13.9695 6.38228 14.0164 6.66334 14.1549C6.94439 14.2933 7.17504 14.5163 7.32291 14.7925C7.47078 15.0688 7.52844 15.3843 7.48781 15.695C7.44494 16.0228 7.29494 16.3273 7.06114 16.5611C6.82734 16.7949 6.52285 16.9449 6.195 16.9878ZM6.195 9.48781C5.88434 9.52844 5.56875 9.47078 5.29254 9.32291C5.01632 9.17504 4.79334 8.94439 4.65489 8.66334C4.51644 8.38228 4.46946 8.06493 4.52057 7.75582C4.57167 7.44671 4.71828 7.16136 4.93982 6.93982C5.16136 6.71828 5.44671 6.57167 5.75582 6.52057C6.06493 6.46946 6.38228 6.51644 6.66334 6.65489C6.94439 6.79334 7.17504 7.01632 7.32291 7.29254C7.47078 7.56875 7.52844 7.88434 7.48781 8.195C7.44494 8.52285 7.29494 8.82734 7.06114 9.06114C6.82734 9.29494 6.52285 9.44494 6.195 9.48781ZM13.695 31.9878C13.3843 32.0284 13.0688 31.9708 12.7925 31.8229C12.5163 31.675 12.2933 31.4444 12.1549 31.1633C12.0164 30.8823 11.9695 30.5649 12.0206 30.2558C12.0717 29.9467 12.2183 29.6614 12.4398 29.4398C12.6614 29.2183 12.9467 29.0717 13.2558 29.0206C13.5649 28.9695 13.8823 29.0164 14.1633 29.1549C14.4444 29.2933 14.675 29.5163 14.8229 29.7925C14.9708 30.0688 15.0284 30.3843 14.9878 30.695C14.9449 31.0228 14.7949 31.3273 14.5611 31.5611C14.3273 31.7949 14.0228 31.9449 13.695 31.9878ZM13.695 24.4878C13.3843 24.5284 13.0688 24.4708 12.7925 24.3229C12.5163 24.175 12.2933 23.9444 12.1549 23.6633C12.0164 23.3823 11.9695 23.0649 12.0206 22.7558C12.0717 22.4467 12.2183 22.1614 12.4398 21.9398C12.6614 21.7183 12.9467 21.5717 13.2558 21.5206C13.5649 21.4695 13.8823 21.5164 14.1633 21.6549C14.4444 21.7933 14.675 22.0163 14.8229 22.2925C14.9708 22.5688 15.0284 22.8843 14.9878 23.195C14.9449 23.5228 14.7949 23.8273 14.5611 24.0611C14.3273 24.2949 14.0228 24.4449 13.695 24.4878ZM13.695 16.9878C13.3843 17.0284 13.0688 16.9708 12.7925 16.8229C12.5163 16.675 12.2933 16.4444 12.1549 16.1633C12.0164 15.8823 11.9695 15.5649 12.0206 15.2558C12.0717 14.9467 12.2183 14.6614 12.4398 14.4398C12.6614 14.2183 12.9467 14.0717 13.2558 14.0206C13.5649 13.9695 13.8823 14.0164 14.1633 14.1549C14.4444 14.2933 14.675 14.5163 14.8229 14.7925C14.9708 15.0688 15.0284 15.3843 14.9878 15.695C14.9449 16.0228 14.7949 16.3273 14.5611 16.5611C14.3273 16.7949 14.0228 16.9449 13.695 16.9878ZM13.695 9.48781C13.3843 9.52844 13.0688 9.47078 12.7925 9.32291C12.5163 9.17504 12.2933 8.94439 12.1549 8.66334C12.0164 8.38228 11.9695 8.06493 12.0206 7.75582C12.0717 7.44671 12.2183 7.16136 12.4398 6.93982C12.6614 6.71828 12.9467 6.57167 13.2558 6.52057C13.5649 6.46946 13.8823 6.51644 14.1633 6.65489C14.4444 6.79334 14.675 7.01632 14.8229 7.29254C14.9708 7.56875 15.0284 7.88434 14.9878 8.195C14.9449 8.52285 14.7949 8.82734 14.5611 9.06114C14.3273 9.29494 14.0228 9.44494 13.695 9.48781ZM21.195 39.4878C20.8843 39.5284 20.5688 39.4708 20.2925 39.3229C20.0163 39.175 19.7933 38.9444 19.6549 38.6633C19.5164 38.3823 19.4695 38.0649 19.5206 37.7558C19.5717 37.4467 19.7183 37.1614 19.9398 36.9398C20.1614 36.7183 20.4467 36.5717 20.7558 36.5206C21.0649 36.4695 21.3823 36.5164 21.6633 36.6549C21.9444 36.7933 22.175 37.0163 22.3229 37.2925C22.4708 37.5688 22.5284 37.8843 22.4878 38.195C22.4449 38.5228 22.2949 38.8273 22.0611 39.0611C21.8273 39.2949 21.5228 39.4449 21.195 39.4878ZM21.195 31.9878C20.8843 32.0284 20.5688 31.9708 20.2925 31.8229C20.0163 31.675 19.7933 31.4444 19.6549 31.1633C19.5164 30.8823 19.4695 30.5649 19.5206 30.2558C19.5717 29.9467 19.7183 29.6614 19.9398 29.4398C20.1614 29.2183 20.4467 29.0717 20.7558 29.0206C21.0649 28.9695 21.3823 29.0164 21.6633 29.1549C21.9444 29.2933 22.175 29.5163 22.3229 29.7925C22.4708 30.0688 22.5284 30.3843 22.4878 30.695C22.4449 31.0228 22.2949 31.3273 22.0611 31.5611C21.8273 31.7949 21.5228 31.9449 21.195 31.9878ZM21.195 24.4878C20.8843 24.5284 20.5688 24.4708 20.2925 24.3229C20.0163 24.175 19.7933 23.9444 19.6549 23.6633C19.5164 23.3823 19.4695 23.0649 19.5206 22.7558C19.5717 22.4467 19.7183 22.1614 19.9398 21.9398C20.1614 21.7183 20.4467 21.5717 20.7558 21.5206C21.0649 21.4695 21.3823 21.5164 21.6633 21.6549C21.9444 21.7933 22.175 22.0163 22.3229 22.2925C22.4708 22.5688 22.5284 22.8843 22.4878 23.195C22.4449 23.5228 22.2949 23.8273 22.0611 24.0611C21.8273 24.2949 21.5228 24.4449 21.195 24.4878ZM21.195 16.9878C20.8843 17.0284 20.5688 16.9708 20.2925 16.8229C20.0163 16.675 19.7933 16.4444 19.6549 16.1633C19.5164 15.8823 19.4695 15.5649 19.5206 15.2558C19.5717 14.9467 19.7183 14.6614 19.9398 14.4398C20.1614 14.2183 20.4467 14.0717 20.7558 14.0206C21.0649 13.9695 21.3823 14.0164 21.6633 14.1549C21.9444 14.2933 22.175 14.5163 22.3229 14.7925C22.4708 15.0688 22.5284 15.3843 22.4878 15.695C22.4449 16.0228 22.2949 16.3273 22.0611 16.5611C21.8273 16.7949 21.5228 16.9449 21.195 16.9878ZM21.195 9.48781C20.8843 9.52844 20.5688 9.47078 20.2925 9.32291C20.0163 9.17504 19.7933 8.94439 19.6549 8.66334C19.5164 8.38228 19.4695 8.06493 19.5206 7.75582C19.5717 7.44671 19.7183 7.16136 19.9398 6.93982C20.1614 6.71828 20.4467 6.57167 20.7558 6.52057C21.0649 6.46946 21.3823 6.51644 21.6633 6.65489C21.9444 6.79334 22.175 7.01632 22.3229 7.29254C22.4708 7.56875 22.5284 7.88434 22.4878 8.195C22.4449 8.52285 22.2949 8.82734 22.0611 9.06114C21.8273 9.29494 21.5228 9.44494 21.195 9.48781ZM38.625 42.5H27V18.5H37.5C37.8978 18.5 38.2794 18.658 38.5607 18.9393C38.842 19.2206 39 19.6022 39 20V42.125C39 42.2245 38.9605 42.3198 38.8902 42.3902C38.8198 42.4605 38.7245 42.5 38.625 42.5Z" fill="#33A49E"/>
<path d="M34.5 36.5C34.2033 36.5 33.9133 36.588 33.6666 36.7528C33.42 36.9176 33.2277 37.1519 33.1142 37.426C33.0006 37.7001 32.9709 38.0017 33.0288 38.2926C33.0867 38.5836 33.2296 38.8509 33.4393 39.0607C33.6491 39.2704 33.9164 39.4133 34.2074 39.4712C34.4983 39.5291 34.7999 39.4994 35.074 39.3858C35.3481 39.2723 35.5824 39.08 35.7472 38.8334C35.912 38.5867 36 38.2967 36 38C36 37.6022 35.842 37.2206 35.5607 36.9393C35.2794 36.658 34.8978 36.5 34.5 36.5Z" fill="#33A49E"/>
<path d="M34.5 29C34.2033 29 33.9133 29.088 33.6666 29.2528C33.42 29.4176 33.2277 29.6519 33.1142 29.926C33.0006 30.2001 32.9709 30.5017 33.0288 30.7926C33.0867 31.0836 33.2296 31.3509 33.4393 31.5607C33.6491 31.7704 33.9164 31.9133 34.2074 31.9712C34.4983 32.0291 34.7999 31.9994 35.074 31.8858C35.3481 31.7723 35.5824 31.58 35.7472 31.3334C35.912 31.0867 36 30.7967 36 30.5C36 30.1022 35.842 29.7206 35.5607 29.4393C35.2794 29.158 34.8978 29 34.5 29Z" fill="#33A49E"/>
<path d="M34.5 21.5C34.2033 21.5 33.9133 21.588 33.6666 21.7528C33.42 21.9176 33.2277 22.1519 33.1142 22.426C33.0006 22.7001 32.9709 23.0017 33.0288 23.2926C33.0867 23.5836 33.2296 23.8509 33.4393 24.0607C33.6491 24.2704 33.9164 24.4133 34.2074 24.4712C34.4983 24.5291 34.7999 24.4994 35.074 24.3858C35.3481 24.2723 35.5824 24.08 35.7472 23.8334C35.912 23.5867 36 23.2967 36 23C36 22.6022 35.842 22.2206 35.5607 21.9393C35.2794 21.658 34.8978 21.5 34.5 21.5Z" fill="#33A49E"/>
<path d="M28.5 36.5C28.2033 36.5 27.9133 36.588 27.6666 36.7528C27.42 36.9176 27.2277 37.1519 27.1142 37.426C27.0006 37.7001 26.9709 38.0017 27.0288 38.2926C27.0867 38.5836 27.2296 38.8509 27.4393 39.0607C27.6491 39.2704 27.9164 39.4133 28.2074 39.4712C28.4983 39.5291 28.7999 39.4994 29.074 39.3858C29.3481 39.2723 29.5824 39.08 29.7472 38.8334C29.912 38.5867 30 38.2967 30 38C30 37.6022 29.842 37.2206 29.5607 36.9393C29.2794 36.658 28.8978 36.5 28.5 36.5Z" fill="#33A49E"/>
<path d="M28.5 29C28.2033 29 27.9133 29.088 27.6666 29.2528C27.42 29.4176 27.2277 29.6519 27.1142 29.926C27.0006 30.2001 26.9709 30.5017 27.0288 30.7926C27.0867 31.0836 27.2296 31.3509 27.4393 31.5607C27.6491 31.7704 27.9164 31.9133 28.2074 31.9712C28.4983 32.0291 28.7999 31.9994 29.074 31.8858C29.3481 31.7723 29.5824 31.58 29.7472 31.3334C29.912 31.0867 30 30.7967 30 30.5C30 30.1022 29.842 29.7206 29.5607 29.4393C29.2794 29.158 28.8978 29 28.5 29Z" fill="#33A49E"/>
<path d="M28.5 21.5C28.2033 21.5 27.9133 21.588 27.6666 21.7528C27.42 21.9176 27.2277 22.1519 27.1142 22.426C27.0006 22.7001 26.9709 23.0017 27.0288 23.2926C27.0867 23.5836 27.2296 23.8509 27.4393 24.0607C27.6491 24.2704 27.9164 24.4133 28.2074 24.4712C28.4983 24.5291 28.7999 24.4994 29.074 24.3858C29.3481 24.2723 29.5824 24.08 29.7472 23.8334C29.912 23.5867 30 23.2967 30 23C30 22.6022 29.842 22.2206 29.5607 21.9393C29.2794 21.658 28.8978 21.5 28.5 21.5Z" fill="#33A49E"/>
</svg>
