<svg width="34" height="46" viewBox="0 0 34 46" fill="none" xmlns="http://www.w3.org/2000/svg">
<path d="M11.2644 45.5C11.0131 45.5002 10.7648 45.4454 10.5369 45.3394C10.309 45.2334 10.1071 45.0788 9.9454 44.8864C9.78367 44.694 9.66604 44.4686 9.60076 44.2259C9.53547 43.9832 9.52413 43.7291 9.56752 43.4816V43.4713L12.2028 29H2.00002C1.71682 29 1.43942 28.9198 1.19989 28.7687C0.960367 28.6176 0.768509 28.4018 0.646509 28.1462C0.524508 27.8906 0.47735 27.6057 0.510489 27.3245C0.543628 27.0432 0.655711 26.7771 0.833773 26.5569L21.381 1.15626C21.6148 0.859378 21.9395 0.647268 22.3054 0.552366C22.6712 0.457465 23.058 0.484997 23.4067 0.630751C23.7554 0.776506 24.0468 1.03246 24.2363 1.35947C24.4258 1.68649 24.5029 2.06656 24.456 2.44157C24.456 2.4697 24.4485 2.49689 24.4438 2.52501L21.7991 17H32C32.2832 17 32.5606 17.0802 32.8002 17.2313C33.0397 17.3824 33.2315 17.5982 33.3535 17.8538C33.4755 18.1094 33.5227 18.3943 33.4896 18.6755C33.4564 18.9568 33.3443 19.2229 33.1663 19.4431L12.6163 44.8438C12.4548 45.0478 12.2494 45.2127 12.0153 45.3264C11.7813 45.44 11.5246 45.4993 11.2644 45.5Z" fill="#33A49E"/>
</svg>
