<svg width="45" height="39" viewBox="0 0 45 39" fill="none" xmlns="http://www.w3.org/2000/svg">
<path d="M15.9947 39H13.499C13.2483 38.9999 13.0015 38.937 12.7814 38.8169C12.5612 38.6969 12.3747 38.5235 12.2388 38.3128C12.1029 38.102 12.0221 37.8606 12.0036 37.6105C11.9851 37.3604 12.0297 37.1097 12.1331 36.8812L18.1762 23.5453L9.10216 23.3438L5.79279 27.3534C5.16185 28.1466 4.65841 28.5 3.37404 28.5H1.69404C1.42804 28.5086 1.1639 28.4529 0.924002 28.3377C0.684103 28.2224 0.475514 28.0511 0.315911 27.8381C0.0927864 27.5372 -0.126588 27.0272 0.0871616 26.2997L1.94529 19.6434C1.95935 19.5937 1.97622 19.5441 1.99497 19.4953C1.99591 19.4907 1.99591 19.4859 1.99497 19.4813C1.97561 19.4325 1.95902 19.3828 1.94529 19.3322L0.0852865 12.6337C-0.116276 11.9203 0.104036 11.4216 0.325286 11.1281C0.473858 10.931 0.666612 10.7715 0.888053 10.6624C1.10949 10.5533 1.35344 10.4977 1.60029 10.5H3.37404C4.3331 10.5 5.26404 10.9303 5.81154 11.625L9.05247 15.5672L18.1762 15.4322L12.135 2.11969C12.0314 1.89136 11.9867 1.64071 12.005 1.39065C12.0233 1.1406 12.1039 0.89911 12.2396 0.68827C12.3753 0.47743 12.5616 0.303964 12.7817 0.183729C13.0017 0.0634937 13.2483 0.000325677 13.499 0H16.0218C16.3738 0.00707287 16.7197 0.0933393 17.0337 0.252394C17.3478 0.411448 17.6219 0.639204 17.8359 0.91875L29.5593 15.1688L34.9753 15.0262C35.3718 15.0047 36.4706 14.9972 36.7247 14.9972C41.9053 15 44.999 16.6819 44.999 19.5C44.999 20.3869 44.6447 22.0313 42.2737 23.0775C40.874 23.6963 39.0065 24.0094 36.7228 24.0094C36.4715 24.0094 35.3756 24.0019 34.9734 23.9803L29.5584 23.8359L17.8059 38.0859C17.5918 38.3643 17.3178 38.5909 17.0043 38.7491C16.6908 38.9073 16.3458 38.9931 15.9947 39Z" fill="#33A49E"/>
</svg>
