<svg width="63" height="63" viewBox="0 0 63 63" fill="none" xmlns="http://www.w3.org/2000/svg">
<path d="M59.22 32.1563C59.22 30.1088 59.0363 28.14 58.695 26.25H31.5V37.4325H47.04C46.3575 41.0288 44.31 44.0738 41.2388 46.1213V53.3925H50.61C56.07 48.3525 59.22 40.95 59.22 32.1563Z" fill="#4285F4"/>
<path d="M31.5 60.375C39.2963 60.375 45.8325 57.8025 50.61 53.3925L41.2388 46.1212C38.6663 47.8537 35.385 48.9037 31.5 48.9037C23.9925 48.9037 17.6138 43.8375 15.33 37.0125H5.72253V44.4675C10.4738 53.8912 20.2125 60.375 31.5 60.375Z" fill="#34A853"/>
<path d="M15.3299 36.9862C14.7524 35.2537 14.4112 33.4162 14.4112 31.5C14.4112 29.5837 14.7524 27.7462 15.3299 26.0137V18.5587H5.72244C3.75369 22.4437 2.62494 26.8275 2.62494 31.5C2.62494 36.1725 3.75369 40.5562 5.72244 44.4412L13.2037 38.6137L15.3299 36.9862Z" fill="#FBBC05"/>
<path d="M31.5 14.1225C35.7525 14.1225 39.5325 15.5925 42.5513 18.4275L50.82 10.1588C45.8063 5.48627 39.2963 2.62502 31.5 2.62502C20.2125 2.62502 10.4738 9.10877 5.72253 18.5588L15.33 26.0138C17.6138 19.1888 23.9925 14.1225 31.5 14.1225Z" fill="#EA4335"/>
</svg>
