<svg width="48" height="48" viewBox="0 0 48 48" fill="none" xmlns="http://www.w3.org/2000/svg">
<path d="M24.0448 7.99509C26.3998 5.82009 29.5348 4.50009 32.9998 4.50009C40.4548 4.50009 46.4998 10.5451 46.4998 18.0001C46.4998 30.0001 31.4998 43.5001 23.9998 46.5001C16.4998 43.5001 1.4998 30.0001 1.4998 18.0001C1.4998 10.5451 7.5448 4.50009 14.9998 4.50009C18.4648 4.50009 21.6148 5.82009 23.9998 7.95009L24.0448 7.99509Z" fill="#33A49E"/>
<path d="M24 7.95698C21.6105 5.81348 18.4635 4.49948 15 4.49948C7.5435 4.49948 1.5 10.5445 1.5 17.9995C1.5 29.9995 16.5 43.4995 24 46.4995C31.5 43.4995 46.5 29.9995 46.5 17.9995C46.5 10.5445 40.4565 4.49948 33 4.49948C27.7155 4.49948 23.2185 7.57598 21 11.9995M40.5 17.9999C40.5 13.8569 37.143 10.4999 33 10.4999" stroke="#242424" stroke-width="2" stroke-linecap="round" stroke-linejoin="round"/>
<g clip-path="url(#clip0_1_1932)">
<path d="M39 24V47H29V23H38C39 23 39 24 39 24Z" fill="#FFF3DC"/>
<path d="M29 47H9V18C9 17.45 9.45 17 10 17H28C28.55 17 29 17.45 29 18V47Z" fill="#01C4AC"/>
<path d="M16 47H22V41H16V47Z" fill="#33A49E"/>
<path d="M29 44V18C29 17.447 28.553 17 28 17H10C9.447 17 9 17.447 9 18V47H16V41H22V47H39V24C39 24 39 23 38 23H32M24 22V24M34 28V30M34 34V36M19 22V24M14 22V24M24 28V30M19 28V30M14 28V30M24 34V36M19 34V36M14 34V36" stroke="black" stroke-width="2" stroke-linecap="round" stroke-linejoin="round"/>
</g>
<defs>
<clipPath id="clip0_1_1932">
<rect width="32" height="32" fill="white" transform="translate(8 16)"/>
</clipPath>
</defs>
</svg>
