<svg width="48" height="48" viewBox="0 0 48 48" fill="none" xmlns="http://www.w3.org/2000/svg">
<g clip-path="url(#clip0_1_1865)">
<path d="M31.4997 4.50015V46.5002H46.4997V25.4987H44.9997H40.4997H36.0012V16.5002V4.50015H31.4997Z" fill="#FFF3DC"/>
<path d="M31.5 4.5V46.5H27V28.5H6V46.5H1.5V3C1.5 2.175 2.175 1.5 3 1.5H30C30.825 1.5 31.5 2.175 31.5 3V4.5Z" fill="#33A49E"/>
<path d="M6 46.5H27V28.5H6V46.5Z" fill="#FFF3DC"/>
<path d="M7.5 19.5H25.5V10.5H7.5V19.5Z" fill="#00C4AC"/>
<path d="M31.5 42V3C31.5 2.1705 30.8295 1.5 30 1.5H3C2.1705 1.5 1.5 2.1705 1.5 3V46.5H6V28.5H27V46.5H46.5V25.5H36V4.5H46.5M12 46.5H21M12 40.5H21M12 34.5H21M16.5 10.5V19.5M46.5 16.5H36M40.5 25.5V16.5M45 25.5V16.5M7.5 19.5H25.5V10.5H7.5V19.5Z" stroke="#242424" stroke-width="2" stroke-linecap="round" stroke-linejoin="round"/>
</g>
<defs>
<clipPath id="clip0_1_1865">
<rect width="48" height="48" fill="white"/>
</clipPath>
</defs>
</svg>
