<svg width="42" height="36" viewBox="0 0 42 36" fill="none" xmlns="http://www.w3.org/2000/svg">
<path d="M15.1584 8.32875C15.2928 8.05982 15.5049 7.83747 15.7671 7.69054C16.0294 7.54361 16.3298 7.47888 16.6293 7.50475C16.9288 7.53062 17.2137 7.64589 17.4469 7.83561C17.6801 8.02534 17.8509 8.28076 17.9372 8.56875L21.3497 19.9463L24.1622 14.3288C24.2868 14.0796 24.4783 13.8701 24.7152 13.7237C24.9521 13.5773 25.2252 13.4997 25.5037 13.4997C25.7823 13.4997 26.0553 13.5773 26.2922 13.7237C26.5292 13.8701 26.7207 14.0796 26.8453 14.3288L29.4272 19.5H38.4984C39.849 16.7156 40.5342 13.6554 40.5 10.5609C40.4409 4.73812 35.7694 0 30.0862 0C25.5778 0 22.5862 2.76938 21 4.78125C19.4175 2.76656 16.4222 0 11.9137 0C6.2306 0 1.55904 4.73812 1.49997 10.5609C1.47573 12.5717 1.75804 14.5743 2.33716 16.5H11.0728L15.1584 8.32875Z" fill="#33A49E"/>
<path d="M27.1584 21.6713L25.5 18.3544L22.3415 24.6713C22.2169 24.9203 22.0254 25.1298 21.7884 25.2762C21.5515 25.4225 21.2785 25.5001 21 25.5C20.9581 25.5 20.915 25.4982 20.8706 25.4944C20.5704 25.4695 20.2846 25.3548 20.0505 25.1651C19.8164 24.9755 19.6448 24.7198 19.5581 24.4313L16.1456 13.0538L13.3331 18.6713C13.2091 18.9191 13.0189 19.1277 12.7836 19.274C12.5483 19.4202 12.277 19.4985 12 19.5H3.50153C4.37653 21.3306 5.54121 23.1325 6.99559 24.9056C8.75528 27.0506 11.9456 30.48 19.3134 35.4816C19.8103 35.8221 20.3985 36.0044 21.0009 36.0044C21.6033 36.0044 22.1915 35.8221 22.6884 35.4816C30.0562 30.48 33.2465 27.0506 35.0062 24.9056C35.64 24.1342 36.2345 23.3313 36.7875 22.5H28.5C28.2215 22.5 27.9484 22.4225 27.7115 22.2762C27.4745 22.1298 27.283 21.9203 27.1584 21.6713Z" fill="#33A49E"/>
<path d="M40.5 19.5H38.4984C37.9997 20.5392 37.428 21.5417 36.7875 22.5L40.5 22.5C40.8979 22.5 41.2794 22.342 41.5607 22.0607C41.842 21.7794 42 21.3978 42 21C42 20.6022 41.842 20.2206 41.5607 19.9393C41.2794 19.658 40.8979 19.5 40.5 19.5Z" fill="#33A49E"/>
<path d="M1.5 16.5C1.10218 16.5 0.720644 16.658 0.43934 16.9393C0.158035 17.2206 0 17.6022 0 18C0 18.3978 0.158035 18.7794 0.43934 19.0607C0.720644 19.342 1.10218 19.5 1.5 19.5L3.50153 19.5C3.03765 18.5311 2.6484 17.5282 2.33716 16.5H1.5Z" fill="#33A49E"/>
</svg>
