<svg width="28" height="48" viewBox="0 0 28 48" fill="none" xmlns="http://www.w3.org/2000/svg">
<path d="M21.5 0H6.5C4.9087 0 3.38258 0.632141 2.25736 1.75736C1.13214 2.88258 0.5 4.4087 0.5 6V42C0.5 43.5913 1.13214 45.1174 2.25736 46.2426C3.38258 47.3679 4.9087 48 6.5 48H21.5C23.0913 48 24.6174 47.3679 25.7426 46.2426C26.8679 45.1174 27.5 43.5913 27.5 42V6C27.5 4.4087 26.8679 2.88258 25.7426 1.75736C24.6174 0.632141 23.0913 0 21.5 0ZM24.5 42C24.5 42.7956 24.1839 43.5587 23.6213 44.1213C23.0587 44.6839 22.2956 45 21.5 45H6.5C5.70435 45 4.94129 44.6839 4.37868 44.1213C3.81607 43.5587 3.5 42.7956 3.5 42V6C3.5 5.20435 3.81607 4.44129 4.37868 3.87868C4.94129 3.31607 5.70435 3 6.5 3H7.56406C7.70912 2.99947 7.85117 3.04134 7.97275 3.12045C8.09434 3.19956 8.19016 3.31248 8.24844 3.44531C8.48136 3.9815 8.86587 4.43796 9.35471 4.75857C9.84354 5.07919 10.4154 5.25 11 5.25H17C17.5846 5.25 18.1565 5.07919 18.6453 4.75857C19.1341 4.43796 19.5186 3.9815 19.7516 3.44531C19.8098 3.31248 19.9057 3.19956 20.0272 3.12045C20.1488 3.04134 20.2909 2.99947 20.4359 3H21.5C22.2956 3 23.0587 3.31607 23.6213 3.87868C24.1839 4.44129 24.5 5.20435 24.5 6V42Z" fill="#33A49E"/>
<path d="M21.5 4.5C21.3272 4.49894 21.1565 4.53812 21.0014 4.61443C20.8463 4.69075 20.7112 4.8021 20.6066 4.93969C20.1878 5.50135 19.6437 5.95749 19.0176 6.27178C18.3914 6.58607 17.7006 6.74982 17 6.75H11C10.2994 6.74982 9.60855 6.58607 8.98242 6.27178C8.35629 5.95749 7.81218 5.50135 7.39344 4.93969C7.28884 4.8021 7.15366 4.69075 6.99859 4.61443C6.84353 4.53812 6.67283 4.49894 6.5 4.5C6.10218 4.5 5.72064 4.65803 5.43934 4.93934C5.15804 5.22064 5 5.60217 5 6V42C5 42.3978 5.15804 42.7794 5.43934 43.0607C5.72064 43.342 6.10218 43.5 6.5 43.5H21.5C21.8978 43.5 22.2794 43.342 22.5607 43.0607C22.842 42.7794 23 42.3978 23 42V6C23 5.60217 22.842 5.22064 22.5607 4.93934C22.2794 4.65803 21.8978 4.5 21.5 4.5Z" fill="#33A49E"/>
<path d="M21.5 0H6.5C4.9087 0 3.38258 0.632141 2.25736 1.75736C1.13214 2.88258 0.5 4.4087 0.5 6V42C0.5 43.5913 1.13214 45.1174 2.25736 46.2426C3.38258 47.3679 4.9087 48 6.5 48H21.5C23.0913 48 24.6174 47.3679 25.7426 46.2426C26.8679 45.1174 27.5 43.5913 27.5 42V6C27.5 4.4087 26.8679 2.88258 25.7426 1.75736C24.6174 0.632141 23.0913 0 21.5 0ZM24.5 42C24.5 42.7956 24.1839 43.5587 23.6213 44.1213C23.0587 44.6839 22.2956 45 21.5 45H6.5C5.70435 45 4.94129 44.6839 4.37868 44.1213C3.81607 43.5587 3.5 42.7956 3.5 42V6C3.5 5.20435 3.81607 4.44129 4.37868 3.87868C4.94129 3.31607 5.70435 3 6.5 3H7.56406C7.70912 2.99947 7.85117 3.04134 7.97275 3.12045C8.09434 3.19956 8.19016 3.31248 8.24844 3.44531C8.48136 3.9815 8.86587 4.43796 9.35471 4.75857C9.84354 5.07919 10.4154 5.25 11 5.25H17C17.5846 5.25 18.1565 5.07919 18.6453 4.75857C19.1341 4.43796 19.5186 3.9815 19.7516 3.44531C19.8098 3.31248 19.9057 3.19956 20.0272 3.12045C20.1488 3.04134 20.2909 2.99947 20.4359 3H21.5C22.2956 3 23.0587 3.31607 23.6213 3.87868C24.1839 4.44129 24.5 5.20435 24.5 6V42Z" fill="#33A49E"/>
</svg>
