<svg width="34" height="42" viewBox="0 0 34 42" fill="none" xmlns="http://www.w3.org/2000/svg">
<path d="M33.125 18H20C18.8065 18 17.6619 17.5259 16.818 16.682C15.9741 15.8381 15.5 14.6935 15.5 13.5V0.375C15.5 0.275544 15.4605 0.180161 15.3902 0.109835C15.3198 0.0395089 15.2245 0 15.125 0H6.5C4.9087 0 3.38258 0.632141 2.25736 1.75736C1.13214 2.88258 0.5 4.4087 0.5 6V36C0.5 37.5913 1.13214 39.1174 2.25736 40.2426C3.38258 41.3679 4.9087 42 6.5 42H27.5C29.0913 42 30.6174 41.3679 31.7426 40.2426C32.8679 39.1174 33.5 37.5913 33.5 36V18.375C33.5 18.2755 33.4605 18.1802 33.3902 18.1098C33.3198 18.0395 33.2245 18 33.125 18ZM24.5 33H9.5C9.10218 33 8.72064 32.842 8.43934 32.5607C8.15804 32.2794 8 31.8978 8 31.5C8 31.1022 8.15804 30.7206 8.43934 30.4393C8.72064 30.158 9.10218 30 9.5 30H24.5C24.8978 30 25.2794 30.158 25.5607 30.4393C25.842 30.7206 26 31.1022 26 31.5C26 31.8978 25.842 32.2794 25.5607 32.5607C25.2794 32.842 24.8978 33 24.5 33ZM24.5 25.5H9.5C9.10218 25.5 8.72064 25.342 8.43934 25.0607C8.15804 24.7794 8 24.3978 8 24C8 23.6022 8.15804 23.2206 8.43934 22.9393C8.72064 22.658 9.10218 22.5 9.5 22.5H24.5C24.8978 22.5 25.2794 22.658 25.5607 22.9393C25.842 23.2206 26 23.6022 26 24C26 24.3978 25.842 24.7794 25.5607 25.0607C25.2794 25.342 24.8978 25.5 24.5 25.5Z" fill="#33A49E"/>
<path d="M32.3019 14.6803L18.8197 1.19811C18.7935 1.17205 18.7601 1.15432 18.7239 1.14715C18.6876 1.13998 18.65 1.14369 18.6159 1.15781C18.5817 1.17194 18.5525 1.19585 18.5318 1.22654C18.5112 1.25723 18.5002 1.29333 18.5 1.3303V13.5C18.5 13.8978 18.658 14.2793 18.9393 14.5606C19.2206 14.842 19.6022 15 20 15H32.1697C32.2067 14.9998 32.2428 14.9887 32.2734 14.9681C32.3041 14.9475 32.328 14.9183 32.3422 14.8841C32.3563 14.85 32.36 14.8124 32.3528 14.7761C32.3457 14.7399 32.3279 14.7065 32.3019 14.6803Z" fill="#33A49E"/>
</svg>
