<svg width="48" height="48" viewBox="0 0 48 48" fill="none" xmlns="http://www.w3.org/2000/svg">
<g clip-path="url(#clip0_1_1910)">
<path d="M36 46.5H12H1.5C1.5 46.5 2.535 41.07 3 39C3.24 37.935 4.02 35.805 9.96 34.215C11.67 33.75 13.815 33.33 16.5 33C16.5 33 18 37.5 24 37.5C30 37.5 31.5 33 31.5 33C34.17 33.33 36.3 33.75 38.01 34.185C43.98 35.775 44.76 37.86 45 39C45.435 41.07 46.5 46.5 46.5 46.5H36Z" fill="#33A49E"/>
<path d="M31.5 13.5C31.5 13.5 30 13.5 28.5 10.5C24 13.5 16.5 13.5 16.5 13.5C16.5 21 19.5 27 24 27C28.5 27 31.5 21 31.5 13.5ZM36 12L38.025 34.155L38.01 34.185C36.3 33.75 34.17 33.33 31.5 33C31.5 33 30 37.5 24 37.5C18 37.5 16.5 33 16.5 33C13.815 33.33 11.67 33.75 9.96 34.215L9.9 33.975L12 12C12.795 5.34 18.195 1.5 24 1.5C29.805 1.5 35.205 5.385 36 12Z" fill="#00C4AC"/>
<path d="M28.5 10.5C30 13.5 31.5 13.5 31.5 13.5C31.5 21 28.5 27 24 27C19.5 27 16.5 21 16.5 13.5C16.5 13.5 24 13.5 28.5 10.5Z" fill="#FFF3DC"/>
<path d="M1.5 46.5C1.5 46.5 2.5305 41.0685 3 39C3.312 37.6245 4.5 34.5 16.5 33C16.5 33 18 37.5 24 37.5C30 37.5 31.5 33 31.5 33C43.5 34.5 44.688 37.5315 45 39C45.441 41.076 46.5 46.5 46.5 46.5M10.5 29.2515L12 12C12.7965 5.3445 18.201 1.5 24 1.5C29.799 1.5 35.2035 5.391 36 12L37.5 29.25M12 45V46.5M36 45V46.5M28.4985 10.5C24 13.5 16.5 13.5 16.5 13.5C16.5 21 19.5 27 24 27C28.5 27 31.5 21 31.5 13.5" stroke="#242424" stroke-width="2" stroke-linecap="round" stroke-linejoin="round"/>
</g>
<defs>
<clipPath id="clip0_1_1910">
<rect width="48" height="48" fill="white"/>
</clipPath>
</defs>
</svg>
