<svg width="29" height="30" viewBox="0 0 29 30" fill="none" xmlns="http://www.w3.org/2000/svg">
<path d="M25.424 19.8626C24.6679 21.7432 23.4851 23.4004 21.9793 24.6892C20.4734 25.9781 18.6903 26.8594 16.7858 27.2561C14.8812 27.6528 12.9133 27.5528 11.054 26.9648C9.19465 26.3769 7.5006 25.3189 6.11991 23.8834C4.73922 22.4479 3.71393 20.6785 3.13368 18.73C2.55342 16.7815 2.43588 14.7132 2.79131 12.7059C3.14675 10.6986 3.96435 8.81338 5.17262 7.21513C6.3809 5.61689 7.94307 4.35424 9.72255 3.5376" stroke="#71C9C3" stroke-width="2" stroke-linecap="round" stroke-linejoin="round"/>
<path d="M26.3635 15C26.3635 13.3585 26.056 11.733 25.4587 10.2165C24.8614 8.69989 23.9858 7.3219 22.8821 6.16117C21.7784 5.00043 20.4681 4.07969 19.026 3.45151C17.5839 2.82332 16.0383 2.5 14.4774 2.5V15H26.3635Z" stroke="#71C9C3" stroke-width="2" stroke-linecap="round" stroke-linejoin="round"/>
</svg>
