<svg width="48" height="48" viewBox="0 0 48 48" fill="none" xmlns="http://www.w3.org/2000/svg">
<g clip-path="url(#clip0_1_1888)">
<path d="M15 36L13.5 30L12 24L10.5 18L9 12H46.5L43.5 33C43.29 34.56 42.18 36 40.5 36H15Z" fill="#33A49E"/>
<path d="M34.5 40.5C36.15 40.5 37.5 41.85 37.5 43.5C37.5 45.15 36.15 46.5 34.5 46.5C32.85 46.5 31.5 45.15 31.5 43.5C31.5 41.85 32.85 40.5 34.5 40.5ZM16.5 40.5C18.15 40.5 19.5 41.85 19.5 43.5C19.5 45.15 18.15 46.5 16.5 46.5C14.85 46.5 13.5 45.15 13.5 43.5C13.5 41.85 14.85 40.5 16.5 40.5Z" fill="#00C4AC"/>
<path d="M12 24H3M13.5 30H4.5M10.5 18H1.5M39 24H16.5M37.5 30H18M40.5 18H15M15 36H40.5C42.1875 36 43.293 34.557 43.5 33L46.5 12H9L6 1.5H1.5M19.5 43.5C19.5 41.844 18.156 40.5 16.5 40.5C14.844 40.5 13.5 41.844 13.5 43.5C13.5 45.156 14.844 46.5 16.5 46.5C18.156 46.5 19.5 45.156 19.5 43.5ZM37.5 43.5C37.5 41.844 36.156 40.5 34.5 40.5C32.844 40.5 31.5 41.844 31.5 43.5C31.5 45.156 32.844 46.5 34.5 46.5C36.156 46.5 37.5 45.156 37.5 43.5Z" stroke="#242424" stroke-width="2" stroke-linecap="round" stroke-linejoin="round"/>
</g>
<defs>
<clipPath id="clip0_1_1888">
<rect width="48" height="48" fill="white"/>
</clipPath>
</defs>
</svg>
