<svg width="48" height="48" viewBox="0 0 48 48" fill="none" xmlns="http://www.w3.org/2000/svg">
<g clip-path="url(#clip0_1_1921)">
<path d="M41.9597 9L43.4597 25.5H28.4597V7.5H40.4597C41.2547 7.5 41.8247 7.905 41.9597 9Z" fill="#FFF3DC"/>
<path d="M37.4596 37.5C39.9496 37.5 41.9596 39.51 41.9596 42C41.9596 44.49 39.9496 46.5 37.4596 46.5C34.9696 46.5 32.9596 44.49 32.9596 42C32.9596 39.51 34.9696 37.5 37.4596 37.5ZM11.9596 37.5C14.4496 37.5 16.4596 39.51 16.4596 42C16.4596 44.49 14.4496 46.5 11.9596 46.5C9.46964 46.5 7.45964 44.49 7.45964 42C7.45964 41.535 7.53464 41.07 7.66964 40.65C8.23964 38.82 9.93464 37.5 11.9596 37.5Z" fill="#00C4AC"/>
<path d="M1.5798 4.5L3.8298 18L5.8098 30L7.57979 40.62L7.6698 40.65C8.2398 38.82 9.9348 37.5 11.9598 37.5C14.4498 37.5 16.4598 39.51 16.4598 42H32.9597C32.9597 39.51 34.9697 37.5 37.4597 37.5C39.9497 37.5 41.9597 39.51 41.9597 42H46.4597V28.5C46.4597 27 44.9597 25.5 43.4597 25.5H28.4598V3C28.4598 2.22 27.7248 1.5 26.9598 1.5H4.4598C2.4498 1.5 1.1598 2.01 1.5798 4.5Z" fill="#33A49E"/>
<path d="M42 42C42 39.516 39.984 37.5 37.5 37.5C35.016 37.5 33 39.516 33 42C33 44.484 35.016 46.5 37.5 46.5C39.984 46.5 42 44.484 42 42ZM42 42H46.5V28.5C46.5 27 45 25.5 43.5 25.5M16.5 42C16.5 39.516 14.484 37.5 12 37.5C9.516 37.5 7.5 39.516 7.5 42C7.5 44.484 9.516 46.5 12 46.5C14.484 46.5 16.5 44.484 16.5 42ZM16.5 42H28.5V3C28.5 2.226 27.7725 1.5 27 1.5H4.5C2.484 1.5 1.1955 2.016 1.617 4.5L3 13.5M43.5 25.5H33M43.5 25.5L42 9C41.859 7.899 41.2965 7.5 40.5 7.5H33M12 24H3M13.5 30H4.5M10.5 18H1.5" stroke="#242424" stroke-width="2" stroke-linecap="round" stroke-linejoin="round"/>
</g>
<defs>
<clipPath id="clip0_1_1921">
<rect width="48" height="48" fill="white"/>
</clipPath>
</defs>
</svg>
